HIERARCHY
ROOT newVegas:Hips
{
	OFFSET 0.000000 96.479958 0.000000
	CHANNELS 6 Xposition Yposition Zposition Xrotation Yrotation Zrotation
	JOINT newVegas:Pelvis
	{
		OFFSET 0.000000 0.000000 0.000000
		CHANNELS 3 Xrotation Yrotation Zrotation
		JOINT newVegas:LeftUpLeg
		{
			OFFSET 18.735201 -5.666702 -4.541200
			CHANNELS 3 Xrotation Yrotation Zrotation
			JOINT newVegas:LeftLeg
			{
				OFFSET -0.021200 -31.938179 0.493100
				CHANNELS 3 Xrotation Yrotation Zrotation
				JOINT newVegas:LeftFoot
				{
					OFFSET 0.021200 -31.938179 -4.336299
					CHANNELS 3 Xrotation Yrotation Zrotation
					JOINT newVegas:LeftToeBase
					{
						OFFSET 0.943001 -26.722000 15.023500
						CHANNELS 3 Xrotation Yrotation Zrotation
						End Site
						{
							OFFSET 0.000000 30.670183 0.000000
						}
					}
				}
				JOINT newVegas:Left_PantLeg
				{
					OFFSET 0.663870 -9.044666 -1.108900
					CHANNELS 3 Xrotation Yrotation Zrotation
					End Site
					{
						OFFSET 1.415995 20.635357 0.000000
					}
				}
			}
		}
		JOINT newVegas:RightUpLeg
		{
			OFFSET -18.735201 -5.666702 -4.541200
			CHANNELS 3 Xrotation Yrotation Zrotation
			JOINT newVegas:RightLeg
			{
				OFFSET 0.018946 -31.938133 0.493100
				CHANNELS 3 Xrotation Yrotation Zrotation
				JOINT newVegas:RightFoot
				{
					OFFSET -0.018946 -31.938126 -4.336299
					CHANNELS 3 Xrotation Yrotation Zrotation
					JOINT newVegas:RightToeBase
					{
						OFFSET -0.943001 -26.722004 15.023500
						CHANNELS 3 Xrotation Yrotation Zrotation
						End Site
						{
							OFFSET 0.000000 30.670187 0.000000
						}
					}
				}
				JOINT newVegas:Right_PantLeg
				{
					OFFSET -0.661674 -9.044716 -1.108900
					CHANNELS 3 Xrotation Yrotation Zrotation
					End Site
					{
						OFFSET -1.415958 20.635269 0.000000
					}
				}
			}
		}
	}
	JOINT newVegas:Spine
	{
		OFFSET 0.000000 10.199997 -0.299500
		CHANNELS 3 Xrotation Yrotation Zrotation
		JOINT newVegas:Spine1
		{
			OFFSET 0.000000 11.900002 -1.516600
			CHANNELS 3 Xrotation Yrotation Zrotation
			JOINT newVegas:Spine2
			{
				OFFSET 0.000000 13.600006 -2.842500
				CHANNELS 3 Xrotation Yrotation Zrotation
				JOINT newVegas:Neck
				{
					OFFSET 0.000000 9.624100 -2.890100
					CHANNELS 3 Xrotation Yrotation Zrotation
					JOINT newVegas:Head
					{
						OFFSET 0.000000 14.068802 -1.351900
						CHANNELS 3 Xrotation Yrotation Zrotation
						JOINT newVegas:Hair_Back
						{
							OFFSET 0.000000 3.231903 -17.524799
							CHANNELS 3 Xrotation Yrotation Zrotation
							End Site
							{
								OFFSET 0.000000 19.849884 0.000000
							}
						}
						JOINT newVegas:Hair_Front
						{
							OFFSET 0.000000 31.260406 4.573800
							CHANNELS 3 Xrotation Yrotation Zrotation
							JOINT newVegas:Hair_Front1
							{
								OFFSET 0.000000 2.284103 11.993300
								CHANNELS 3 Xrotation Yrotation Zrotation
								JOINT newVegas:Hair_Front2
								{
									OFFSET 0.000000 2.284103 11.993300
									CHANNELS 3 Xrotation Yrotation Zrotation
									End Site
									{
										OFFSET 0.000000 12.208862 0.000000
									}
								}
							}
						}
						JOINT newVegas:Jowel
						{
							OFFSET 0.000000 -7.458206 6.864100
							CHANNELS 3 Xrotation Yrotation Zrotation
							End Site
							{
								OFFSET 0.000000 19.849884 0.000000
							}
						}
					}
				}
				JOINT newVegas:LeftShoulder
				{
					OFFSET 15.263000 10.923401 -0.547700
					CHANNELS 3 Xrotation Yrotation Zrotation
					JOINT newVegas:LeftArm
					{
						OFFSET 25.438599 -2.830597 -13.032500
						CHANNELS 3 Xrotation Yrotation Zrotation
						JOINT newVegas:LeftForeArm
						{
							OFFSET 29.960503 0.000000 0.000000
							CHANNELS 3 Xrotation Yrotation Zrotation
							JOINT newVegas:LeftHand
							{
								OFFSET 27.849251 0.000000 0.000000
								CHANNELS 3 Xrotation Yrotation Zrotation
								JOINT newVegas:LeftHandThumb1
								{
									OFFSET 4.487587 -3.305161 6.305391
									CHANNELS 3 Xrotation Yrotation Zrotation
									JOINT newVegas:LeftHandThumb2
									{
										OFFSET 5.480453 -3.164139 3.164143
										CHANNELS 3 Xrotation Yrotation Zrotation
										JOINT newVegas:LeftHandThumb3
										{
											OFFSET 5.159721 -2.978973 2.978967
											CHANNELS 3 Xrotation Yrotation Zrotation
											End Site
											{
												OFFSET 2.494507 5.926697 1.738678
											}
										}
									}
								}
								JOINT newVegas:LeftHandIndex1
								{
									OFFSET 18.578728 -0.527832 5.208049
									CHANNELS 3 Xrotation Yrotation Zrotation
									JOINT newVegas:LeftHandIndex2
									{
										OFFSET 3.192009 0.000000 0.000000
										CHANNELS 3 Xrotation Yrotation Zrotation
										JOINT newVegas:LeftHandIndex3
										{
											OFFSET 3.835129 0.000000 0.000000
											CHANNELS 3 Xrotation Yrotation Zrotation
											End Site
											{
												OFFSET -0.034599 3.816971 0.371180
											}
										}
									}
								}
								JOINT newVegas:LeftHandMiddle1
								{
									OFFSET 18.476105 0.000000 0.000000
									CHANNELS 3 Xrotation Yrotation Zrotation
									JOINT newVegas:LeftHandMiddle2
									{
										OFFSET 3.324875 0.000000 0.000000
										CHANNELS 3 Xrotation Yrotation Zrotation
										JOINT newVegas:LeftHandMiddle3
										{
											OFFSET 4.596550 0.000000 0.000000
											CHANNELS 3 Xrotation Yrotation Zrotation
											End Site
											{
												OFFSET 0.057701 4.578827 0.399218
											}
										}
									}
								}
								JOINT newVegas:LeftHandRing1
								{
									OFFSET 17.732719 0.121887 -4.201567
									CHANNELS 3 Xrotation Yrotation Zrotation
									JOINT newVegas:LeftHandRing2
									{
										OFFSET 2.733170 0.000000 0.000000
										CHANNELS 3 Xrotation Yrotation Zrotation
										JOINT newVegas:LeftHandRing3
										{
											OFFSET 3.178268 0.000000 0.000000
											CHANNELS 3 Xrotation Yrotation Zrotation
											End Site
											{
												OFFSET 0.119102 3.170624 0.185394
											}
										}
									}
								}
								JOINT newVegas:LeftHandPinky1
								{
									OFFSET 15.989624 -0.606689 -7.535461
									CHANNELS 3 Xrotation Yrotation Zrotation
									JOINT newVegas:LeftHandPinky2
									{
										OFFSET 2.538986 0.000000 0.000000
										CHANNELS 3 Xrotation Yrotation Zrotation
										JOINT newVegas:LeftHandPinky3
										{
											OFFSET 2.593102 0.000000 0.000000
											CHANNELS 3 Xrotation Yrotation Zrotation
											End Site
											{
												OFFSET -0.150902 2.584198 0.152708
											}
										}
									}
								}
							}
							JOINT newVegas:Left_Sleeve
							{
								OFFSET 0.267448 -0.649796 0.577675
								CHANNELS 3 Xrotation Yrotation Zrotation
								End Site
								{
									OFFSET 0.000000 15.991241 0.000000
								}
							}
							JOINT newVegas:Left_CapeC
							{
								OFFSET 15.715958 -8.608795 -6.935905
								CHANNELS 3 Xrotation Yrotation Zrotation
								JOINT newVegas:Left_CapeC1
								{
									OFFSET 0.000000 -8.688499 0.000000
									CHANNELS 3 Xrotation Yrotation Zrotation
									End Site
									{
										OFFSET 0.000000 8.688499 0.000000
									}
								}
							}
						}
						JOINT newVegas:Left_CapeB
						{
							OFFSET 26.118385 -8.608795 -7.079235
							CHANNELS 3 Xrotation Yrotation Zrotation
							JOINT newVegas:Left_CapeB1
							{
								OFFSET 0.000000 -8.688499 0.000000
								CHANNELS 3 Xrotation Yrotation Zrotation
								End Site
								{
									OFFSET 0.000000 8.688499 0.000000
								}
							}
						}
						JOINT newVegas:Left_CapeA
						{
							OFFSET 5.115639 -8.608795 -10.395809
							CHANNELS 3 Xrotation Yrotation Zrotation
							JOINT newVegas:Left_CapeA1
							{
								OFFSET 0.000000 -8.688499 0.000000
								CHANNELS 3 Xrotation Yrotation Zrotation
								End Site
								{
									OFFSET 0.000000 8.688499 0.000000
								}
							}
						}
					}
				}
				JOINT newVegas:RightShoulder
				{
					OFFSET -15.263000 10.923401 -0.547700
					CHANNELS 3 Xrotation Yrotation Zrotation
					JOINT newVegas:RightArm
					{
						OFFSET -25.438599 -2.830597 -13.032500
						CHANNELS 3 Xrotation Yrotation Zrotation
						JOINT newVegas:RightForeArm
						{
							OFFSET -29.960503 0.000000 0.000000
							CHANNELS 3 Xrotation Yrotation Zrotation
							JOINT newVegas:RightHand
							{
								OFFSET -27.849251 0.000000 0.000000
								CHANNELS 3 Xrotation Yrotation Zrotation
								JOINT newVegas:RightHandThumb1
								{
									OFFSET -4.487587 -3.305161 6.305391
									CHANNELS 3 Xrotation Yrotation Zrotation
									JOINT newVegas:RightHandThumb2
									{
										OFFSET -5.480453 -3.164139 3.164143
										CHANNELS 3 Xrotation Yrotation Zrotation
										JOINT newVegas:RightHandThumb3
										{
											OFFSET -5.159721 -2.978973 2.978967
											CHANNELS 3 Xrotation Yrotation Zrotation
											End Site
											{
												OFFSET -2.494507 5.926697 1.738678
											}
										}
									}
								}
								JOINT newVegas:RightHandIndex1
								{
									OFFSET -18.578728 -0.527832 5.208049
									CHANNELS 3 Xrotation Yrotation Zrotation
									JOINT newVegas:RightHandIndex2
									{
										OFFSET -3.192009 0.000000 0.000000
										CHANNELS 3 Xrotation Yrotation Zrotation
										JOINT newVegas:RightHandIndex3
										{
											OFFSET -3.835129 0.000000 0.000000
											CHANNELS 3 Xrotation Yrotation Zrotation
											End Site
											{
												OFFSET 0.034599 3.816971 0.371180
											}
										}
									}
								}
								JOINT newVegas:RightHandMiddle1
								{
									OFFSET -18.476105 0.000000 0.000000
									CHANNELS 3 Xrotation Yrotation Zrotation
									JOINT newVegas:RightHandMiddle2
									{
										OFFSET -3.324875 0.000000 0.000000
										CHANNELS 3 Xrotation Yrotation Zrotation
										JOINT newVegas:RightHandMiddle3
										{
											OFFSET -4.596550 0.000000 0.000000
											CHANNELS 3 Xrotation Yrotation Zrotation
											End Site
											{
												OFFSET -0.057701 4.578827 0.399218
											}
										}
									}
								}
								JOINT newVegas:RightHandRing1
								{
									OFFSET -17.732719 0.121887 -4.201567
									CHANNELS 3 Xrotation Yrotation Zrotation
									JOINT newVegas:RightHandRing2
									{
										OFFSET -2.733170 0.000000 0.000000
										CHANNELS 3 Xrotation Yrotation Zrotation
										JOINT newVegas:RightHandRing3
										{
											OFFSET -3.178268 0.000000 0.000000
											CHANNELS 3 Xrotation Yrotation Zrotation
											End Site
											{
												OFFSET -0.119102 3.170624 0.185394
											}
										}
									}
								}
								JOINT newVegas:RightHandPinky1
								{
									OFFSET -15.989624 -0.606689 -7.535461
									CHANNELS 3 Xrotation Yrotation Zrotation
									JOINT newVegas:RightHandPinky2
									{
										OFFSET -2.538986 0.000000 0.000000
										CHANNELS 3 Xrotation Yrotation Zrotation
										JOINT newVegas:RightHandPinky3
										{
											OFFSET -2.593102 0.000000 0.000000
											CHANNELS 3 Xrotation Yrotation Zrotation
											End Site
											{
												OFFSET 0.150902 2.584198 0.152708
											}
										}
									}
								}
							}
							JOINT newVegas:Right_CapeC
							{
								OFFSET -15.715958 -8.608795 -6.935905
								CHANNELS 3 Xrotation Yrotation Zrotation
								JOINT newVegas:Right_CapeC1
								{
									OFFSET 0.000000 -8.688499 0.000000
									CHANNELS 3 Xrotation Yrotation Zrotation
									End Site
									{
										OFFSET 0.000000 8.688499 0.000000
									}
								}
							}
							JOINT newVegas:Right_Sleeve
							{
								OFFSET -0.267448 -0.649994 0.577675
								CHANNELS 3 Xrotation Yrotation Zrotation
								End Site
								{
									OFFSET 0.000000 15.991302 0.000000
								}
							}
						}
						JOINT newVegas:Right_CapeA
						{
							OFFSET -5.115540 -8.608795 -10.395824
							CHANNELS 3 Xrotation Yrotation Zrotation
							JOINT newVegas:Right_CapeA1
							{
								OFFSET 0.000000 -8.688499 0.000000
								CHANNELS 3 Xrotation Yrotation Zrotation
								End Site
								{
									OFFSET 0.000000 8.688499 0.000000
								}
							}
						}
						JOINT newVegas:Right_CapeB
						{
							OFFSET -26.118187 -8.608795 -7.079266
							CHANNELS 3 Xrotation Yrotation Zrotation
							JOINT newVegas:Right_CapeB1
							{
								OFFSET 0.000000 -8.688499 0.000000
								CHANNELS 3 Xrotation Yrotation Zrotation
								End Site
								{
									OFFSET 0.000000 8.688499 0.000000
								}
							}
						}
					}
				}
				JOINT newVegas:Left_Collar
				{
					OFFSET 18.625099 8.655502 8.828100
					CHANNELS 3 Xrotation Yrotation Zrotation
					JOINT newVegas:Left_Collar1
					{
						OFFSET 14.783401 10.540405 -1.259500
						CHANNELS 3 Xrotation Yrotation Zrotation
						End Site
						{
							OFFSET 0.000000 18.199875 0.000000
						}
					}
				}
				JOINT newVegas:Collar_Back
				{
					OFFSET 0.000000 15.630707 -20.132601
					CHANNELS 3 Xrotation Yrotation Zrotation
					End Site
					{
						OFFSET 0.000000 22.523010 0.000000
					}
				}
				JOINT newVegas:Left_Peck
				{
					OFFSET 17.239599 -5.132599 25.482599
					CHANNELS 3 Xrotation Yrotation Zrotation
					End Site
					{
						OFFSET 0.000000 22.523010 0.000000
					}
				}
				JOINT newVegas:Right_Peck
				{
					OFFSET -17.239599 -5.132202 25.482599
					CHANNELS 3 Xrotation Yrotation Zrotation
					End Site
					{
						OFFSET 0.000000 22.523010 0.000000
					}
				}
				JOINT newVegas:Right_Collar
				{
					OFFSET -18.625099 8.655792 8.828100
					CHANNELS 3 Xrotation Yrotation Zrotation
					JOINT newVegas:Right_Collar1
					{
						OFFSET -14.783401 10.539993 -1.259500
						CHANNELS 3 Xrotation Yrotation Zrotation
						End Site
						{
							OFFSET 0.000000 18.199631 0.000000
						}
					}
				}
			}
		}
		JOINT newVegas:Belly
		{
			OFFSET 0.000000 -6.540398 9.014299
			CHANNELS 3 Xrotation Yrotation Zrotation
			End Site
			{
				OFFSET 0.000000 11.566666 0.000000
			}
		}
	}
	JOINT newVegas:ElvisFacialAnim_Joint
	{
		OFFSET 1.000000 -95.330101 -8.825800
		CHANNELS 3 Xrotation Yrotation Zrotation
		End Site
		{
			OFFSET 0.000000 35.315800 0.000000
		}
	}
}
MOTION
Frames: 4
Frame Time: 0.016667
1.739908 81.918289 38.175728 11.260338 -1.382663 -5.219007 0.000001 0.000000 0.000000 -79.025173 -3.953957 7.411821 127.077923 6.387995 0.548099 27.320982 0.512264 0.815081 -0.000000 -0.000000 0.000001 0.000002 0.000000 0.000001 -36.581844 -11.402337 6.935161 60.780822 0.477509 1.327093 -35.007137 3.251292 -8.177606 -0.000000 -0.000000 0.000000 0.000002 0.000000 -0.000000 10.000824 1.835954 7.300843 2.029114 -0.047010 0.508498 4.987198 -0.052526 0.186541 -1.224468 0.052407 -0.107542 -1.224465 0.052406 -0.107542 -0.000001 0.000000 -0.000000 -1.224391 0.052405 -0.107542 -1.224485 0.052408 -0.107542 -0.000000 -0.000000 0.000000 -0.000001 0.000000 -0.000000 0.557757 -4.314608 -11.777486 13.923815 -4.816976 -56.121387 -0.000000 -89.999975 0.000015 3.946658 -2.534496 11.903153 -0.820501 6.623780 -5.864587 14.168494 15.386731 18.402785 0.000001 0.000001 -0.000006 9.947279 5.735772 -90.836257 4.054207 5.569247 -72.086383 -0.000001 0.000001 -0.000000 4.883444 8.107979 -80.603377 4.657611 5.728445 -78.210802 -0.000000 0.000001 -0.000000 2.753109 7.678679 -78.443521 5.946884 5.850254 -90.939891 0.000002 -0.000000 -0.000002 7.311321 13.596525 -78.537251 4.413828 5.672366 -75.756961 0.000002 -0.000003 0.000001 -0.000000 -0.000001 -0.000000 -0.000000 -0.000001 -0.000000 -0.000001 -0.000001 0.000000 -0.000001 -0.000002 -0.000003 -0.000001 -0.000002 -0.000003 -0.000001 -0.000002 -0.000003 -0.000002 -0.000003 -0.000002 0.567974 4.488693 11.813869 -16.187041 25.518746 44.451168 -0.007359 90.272240 0.007951 7.843989 11.318552 -12.809354 5.535779 -3.771045 -3.032804 2.457520 -9.078654 -15.939554 0.000001 0.000000 0.000001 -3.723532 -3.298346 73.104997 3.463143 -4.501823 75.128509 -0.000001 -0.000001 -0.000002 -3.073233 -4.980229 74.622344 3.766041 -4.571289 78.957000 0.000002 -0.000002 -0.000001 -3.819550 -5.359643 78.849541 3.124252 -4.398145 70.762850 0.000003 0.000001 -0.000001 -1.443990 -6.451719 84.219552 3.515516 -4.515355 75.795081 0.000001 0.000003 0.000000 0.000000 -0.000001 -0.000001 0.000000 -0.000001 0.000001 0.000001 -0.000001 -0.000001 -0.000000 0.000001 0.000001 0.000000 0.000001 0.000001 -0.000000 0.000001 0.000001 0.000000 0.000001 0.000001 -0.000002 0.000000 -0.000000 -0.000002 0.000000 -0.000000 -0.000002 0.000000 -0.000000 -0.000002 0.000000 -0.000000 -0.000002 0.000000 -0.000000 -0.000002 0.000000 -0.000000 -0.000002 0.000000 -0.000000 -0.000000 0.000000 -0.000000 0.000001 0.000000 0.000000 
1.664918 82.569672 43.092648 12.165649 -1.491393 -3.800689 -0.000000 0.000000 0.000000 -94.691250 -2.731337 7.614431 125.875523 6.587492 -0.501762 21.360759 0.556496 3.495210 -0.000000 -0.000001 0.000000 -0.000002 0.000000 0.000001 -31.929792 -10.095438 7.382825 58.373706 -1.160504 0.150695 -37.009920 3.290282 -7.847038 0.000000 -0.000000 0.000000 -0.000002 -0.000001 -0.000001 10.877173 2.411474 5.525791 2.512571 0.388421 -0.101538 5.375359 0.319863 -0.444560 -1.321906 -0.027268 0.048307 -1.321913 -0.027268 0.048306 0.000001 -0.000000 0.000000 -1.321906 -0.027267 0.048307 -1.321916 -0.027268 0.048307 0.000001 0.000000 0.000000 0.000001 -0.000000 0.000000 0.550769 -4.131759 -11.649552 15.857059 -4.083520 -55.500529 -0.000082 -84.180879 -0.000042 -0.007470 -3.522486 9.556837 -0.816957 6.649055 -5.842824 14.164828 15.374466 18.442520 0.000003 -0.000001 -0.000001 10.008348 5.729153 -90.997941 4.064130 5.572413 -72.188474 0.000001 0.000001 0.000001 4.897390 8.110465 -80.744010 4.669151 5.730842 -78.326294 -0.000004 -0.000003 0.000000 2.740974 7.681165 -78.578936 5.961407 5.850010 -91.082471 -0.000002 0.000001 0.000002 7.299135 13.584427 -78.671854 4.424716 5.675118 -75.867084 0.000001 -0.000003 -0.000003 -0.000002 -0.000002 0.000001 -0.000002 -0.000002 0.000001 -0.000003 -0.000001 0.000002 0.000000 0.000000 0.000001 0.000000 -0.000001 0.000000 0.000000 0.000000 0.000001 -0.000001 -0.000002 0.000000 0.473738 5.340372 11.212078 -18.532566 23.013660 45.080717 0.000992 92.047379 -0.000908 6.621903 11.435204 -18.486771 5.528097 -3.804568 -3.069118 2.442971 -9.034361 -15.978966 0.000002 0.000002 -0.000002 -3.685732 -3.342047 73.312368 3.475282 -4.505008 75.283110 0.000002 -0.000003 -0.000002 -3.084188 -5.003706 74.836539 3.779341 -4.573868 79.123930 0.000000 -0.000001 -0.000000 -3.868927 -5.381830 79.076768 3.134961 -4.401874 70.902691 0.000000 0.000001 -0.000000 -1.521146 -6.464721 84.494788 3.527848 -4.518449 75.951833 0.000001 0.000003 -0.000001 -0.000000 -0.000000 -0.000002 -0.000000 -0.000001 -0.000003 -0.000000 0.000000 -0.000001 0.000000 0.000001 0.000000 0.000000 0.000001 0.000000 0.000000 0.000001 0.000000 0.000000 0.000001 0.000000 0.000002 0.000000 0.000000 0.000002 0.000000 0.000000 0.000002 0.000000 0.000000 0.000002 0.000000 0.000000 0.000002 0.000000 0.000000 0.000002 0.000000 0.000000 0.000002 0.000000 0.000000 -0.000000 -0.000000 0.000000 -0.000000 0.000000 0.000000 
1.560887 83.475098 47.213097 12.560754 -1.226284 -2.647584 -0.000001 0.000000 -0.000000 -103.325176 -2.224650 8.295233 120.661835 3.360868 -2.048036 12.704571 0.146787 2.614060 -0.000001 0.000000 -0.000000 0.000001 -0.000000 0.000000 -27.134192 -8.883710 7.843883 54.980789 -1.307575 -0.901121 -37.646582 1.394719 -8.077020 0.000000 -0.000000 0.000000 0.000000 -0.000000 0.000000 11.672599 2.678496 3.920199 2.983597 0.736435 -0.674759 5.744164 0.609385 -1.028370 -1.252111 -0.081854 0.153076 -1.252116 -0.081854 0.153075 -0.000003 -0.000000 -0.000000 -1.252074 -0.081857 0.153076 -1.252108 -0.081849 0.153075 -0.000000 0.000000 -0.000000 -0.000003 -0.000000 -0.000000 0.538959 -4.141282 -11.327448 18.370880 -3.661168 -55.120870 0.000036 -80.178853 0.000030 -2.644596 -4.276824 7.635062 -0.807174 6.718937 -5.782603 14.154847 15.340519 18.552319 0.000003 0.000000 -0.000004 10.177116 5.709235 -91.444840 4.091545 5.581114 -72.470718 -0.000001 -0.000005 -0.000001 4.935993 8.117112 -81.132880 4.701045 5.737312 -78.645708 0.000000 0.000003 0.000005 2.707404 7.688494 -78.953312 6.001589 5.849114 -91.476703 0.000002 0.000003 0.000002 7.265186 13.551555 -79.043949 4.454857 5.682586 -76.171622 0.000001 -0.000002 0.000002 0.000000 -0.000004 0.000001 0.000000 -0.000004 0.000001 -0.000000 -0.000004 0.000001 -0.000000 -0.000002 -0.000002 -0.000000 -0.000002 -0.000002 -0.000000 -0.000002 -0.000002 -0.000001 -0.000003 -0.000001 0.447438 5.899440 10.987406 -20.430617 18.612568 45.715201 -0.001032 95.070639 0.000974 7.385904 12.237845 -22.965968 5.508433 -3.890101 -3.161996 2.405747 -8.921131 -16.079537 -0.000000 0.000000 -0.000000 -3.588216 -3.452418 73.842575 3.506340 -4.513032 75.678195 -0.000000 -0.000004 -0.000001 -3.111907 -5.064223 75.383869 3.813404 -4.580245 79.550551 0.000003 0.000003 0.000002 -3.994949 -5.440436 79.657238 3.162418 -4.411261 71.260019 -0.000001 0.000002 0.000001 -1.718442 -6.501727 85.197867 3.559437 -4.526201 76.352383 -0.000000 -0.000000 -0.000000 -0.000002 -0.000001 -0.000002 0.000000 -0.000001 -0.000000 -0.000001 -0.000000 -0.000002 0.000001 0.000000 0.000002 0.000002 0.000000 0.000002 0.000001 0.000000 0.000002 0.000002 -0.000001 0.000002 0.000004 0.000000 0.000000 0.000004 0.000000 0.000000 0.000004 0.000000 0.000000 0.000004 0.000000 0.000000 0.000004 0.000000 0.000000 0.000004 0.000000 0.000000 0.000004 0.000000 0.000000 -0.000001 0.000000 -0.000000 -0.000001 0.000000 -0.000000 
1.471836 84.105713 51.184216 12.283112 -0.892153 -2.246640 -0.000000 0.000000 0.000000 -104.646578 -3.069503 9.167132 112.566271 -1.956268 -3.767279 1.532068 0.146725 -2.048611 0.000000 0.000000 0.000000 0.000000 -0.000000 -0.000000 -22.552655 -8.097239 8.515111 52.295425 -0.924134 -1.819857 -36.982759 -1.176609 -7.945188 -0.000000 -0.000000 0.000000 0.000004 0.000001 -0.000000 12.227738 3.038441 2.965103 3.317689 1.004296 -1.066091 5.969679 0.834223 -1.426133 -0.976330 -0.121964 0.204469 -0.976328 -0.121966 0.204470 0.000004 0.000000 -0.000000 -0.976389 -0.121965 0.204469 -0.976310 -0.121963 0.204469 -0.000001 0.000000 -0.000000 0.000004 0.000000 -0.000000 0.522132 -4.229543 -10.713357 21.185300 -3.140016 -55.477576 -0.000006 -77.628269 -0.000008 -2.809218 -4.161623 6.201274 -0.792421 6.824526 -5.691673 14.139999 15.289261 18.718263 0.000003 -0.000002 -0.000003 10.431884 5.674574 -92.119588 4.133064 5.593986 -72.897120 -0.000000 -0.000003 -0.000001 4.994378 8.126698 -81.720358 4.749320 5.746744 -79.128254 0.000002 -0.000000 0.000001 2.656610 7.700833 -79.518811 6.062274 5.847244 -92.072186 -0.000002 -0.000000 -0.000002 7.213189 13.503625 -79.606087 4.500446 5.693550 -76.631683 0.000001 -0.000002 0.000003 -0.000000 0.000001 -0.000000 -0.000000 0.000001 -0.000000 -0.000001 0.000001 0.000000 0.000001 -0.000003 -0.000002 0.000001 -0.000003 -0.000001 0.000001 -0.000003 -0.000002 0.000000 -0.000003 -0.000003 0.476050 6.147941 11.241235 -21.265164 13.374100 46.275433 -0.000292 97.989842 0.000277 9.380823 14.068455 -25.678520 5.481885 -4.005285 -3.287295 2.355689 -8.768413 -16.214970 -0.000003 -0.000002 -0.000001 -3.454689 -3.598507 74.557812 3.548279 -4.523506 76.210684 0.000001 -0.000002 0.000001 -3.148559 -5.146971 76.121488 3.859351 -4.588464 80.125578 0.000002 -0.000001 0.000000 -4.164355 -5.524022 80.439117 3.199533 -4.423634 71.741698 -0.000000 0.000001 -0.000001 -1.984427 -6.560267 86.144613 3.602097 -4.536327 76.892309 -0.000004 0.000001 0.000001 -0.000001 0.000001 0.000001 0.000001 0.000000 -0.000001 -0.000000 0.000001 0.000001 0.000001 -0.000001 0.000001 0.000002 0.000000 0.000001 0.000001 -0.000001 0.000001 0.000002 -0.000000 0.000001 0.000000 0.000000 -0.000000 0.000000 0.000000 -0.000000 0.000000 0.000000 -0.000000 0.000000 0.000000 -0.000000 0.000000 0.000000 -0.000000 0.000000 0.000000 -0.000000 0.000000 0.000000 -0.000000 0.000000 -0.000000 -0.000000 -0.000000 0.000000 0.000000 
